<svg width="800" height="800" viewBox="0 0 800 800" fill="none" xmlns="http://www.w3.org/2000/svg">
<g clip-path="url(#clip0_2003_191)">
<rect width="800" height="800" fill="white"/>
<path fill-rule="evenodd" clip-rule="evenodd" d="M0 647.368C75.7895 647.368 134.737 622.105 134.737 622.105C134.737 622.105 235.789 369.474 378.947 369.474C488.421 369.474 505.263 453.684 505.263 453.684C505.263 453.684 665.263 142.105 800 100C673.684 201.053 690.526 310.526 631.579 361.053C572.632 411.579 572.632 361.272 505.263 479.167C353.684 496.009 304.167 546.316 202.105 605.263C378.947 521.053 412.632 512.632 572.632 521.053C589.43 521.937 597.895 529.474 589.474 546.316C565.042 595.179 546.79 668.725 513.684 664.21C328.421 638.947 218.947 681.053 126.316 681.053C33.6842 681.053 0 664.211 0 647.368Z" fill="#609B4D"/>
</g>
<defs>
<clipPath id="clip0_2003_191">
<rect width="800" height="800" fill="white"/>
</clipPath>
</defs>
</svg>
